<svg width="84" height="25" viewBox="0 0 84 25" fill="none" xmlns="http://www.w3.org/2000/svg">
<g id="LOGO">
<path d="M31.3661 2.34507e-06H26.3465V25H51.4388V19.9995H31.3661V2.34507e-06Z" fill="#031E59"/>
<path d="M57.7153 2.34507e-06H52.6957V25H57.7153V2.34507e-06Z" fill="#031E59"/>
<path d="M71.5143 19.9995C67.3568 19.9995 63.9863 16.6417 63.9863 12.5C63.9863 8.35831 67.3568 5.00054 71.5143 5.00054C75.2447 5.00054 78.3386 7.7028 78.9375 11.2505H84C83.3716 4.93365 78.0217 2.34507e-06 71.517 2.34507e-06C64.5879 2.34507e-06 58.9695 5.59718 58.9695 12.5C58.9695 19.4028 64.5879 25 71.517 25C78.0217 25 83.3716 20.0663 84 13.7495H78.9375C78.3386 17.2972 75.2447 19.9995 71.5143 19.9995Z" fill="#031E59"/>
<path d="M12.5448 5.00054C16.2752 5.00054 19.3691 7.7028 19.968 11.2505H25.0305C24.4021 4.93364 19.0522 0 12.5475 0C5.61845 0 0 5.59718 0 12.5C0 19.4028 5.61845 25 12.5475 25C19.0522 25 24.4021 20.0663 25.0305 13.7495H19.968C19.3691 17.2972 16.2752 19.9995 12.5448 19.9995C8.38738 19.9995 5.01685 16.6417 5.01685 12.5C5.01685 8.3583 8.38738 5.00054 12.5448 5.00054Z" fill="#031E59"/>
</g>
</svg>
